<svg xmlns="http://www.w3.org/2000/svg" xmlns:xlink="http://www.w3.org/1999/xlink" width="215" zoomAndPan="magnify" viewBox="0 0 161.25 56.249996" height="75" preserveAspectRatio="xMidYMid meet" version="1.0"><defs><g/></defs><g fill="#000000" fill-opacity="1"><g transform="translate(16.867385, 38.431617)"><g><path d="M 13.40625 -3.015625 C 13.40625 -2.171875 13.5625 -1.550781 13.875 -1.15625 C 14.1875 -0.769531 14.734375 -0.578125 15.515625 -0.578125 L 15.515625 0 C 14.941406 -0.0507812 14.367188 -0.078125 13.796875 -0.078125 C 12.628906 -0.078125 11.671875 0.0507812 10.921875 0.3125 L 10.921875 -2.15625 C 10.585938 -1.332031 10.085938 -0.703125 9.421875 -0.265625 C 8.753906 0.171875 7.941406 0.390625 6.984375 0.390625 C 5.210938 0.390625 3.820312 -0.242188 2.8125 -1.515625 C 1.800781 -2.796875 1.304688 -4.664062 1.328125 -7.125 C 1.328125 -8.726562 1.609375 -10.097656 2.171875 -11.234375 C 2.734375 -12.367188 3.488281 -13.222656 4.4375 -13.796875 C 5.394531 -14.367188 6.445312 -14.65625 7.59375 -14.65625 C 8.289062 -14.65625 8.929688 -14.519531 9.515625 -14.25 C 10.097656 -13.976562 10.566406 -13.566406 10.921875 -13.015625 L 10.921875 -18.390625 C 10.921875 -19.242188 10.757812 -19.863281 10.4375 -20.25 C 10.125 -20.632812 9.582031 -20.828125 8.8125 -20.828125 L 8.8125 -21.421875 C 9.40625 -21.359375 9.976562 -21.328125 10.53125 -21.328125 C 11.6875 -21.328125 12.644531 -21.457031 13.40625 -21.71875 Z M 7.78125 -0.4375 C 8.5 -0.4375 9.144531 -0.710938 9.71875 -1.265625 C 10.289062 -1.828125 10.691406 -2.613281 10.921875 -3.625 L 10.921875 -11.890625 C 10.421875 -13.304688 9.382812 -14.015625 7.8125 -14.015625 C 6.664062 -14.015625 5.738281 -13.425781 5.03125 -12.25 C 4.332031 -11.082031 3.992188 -9.375 4.015625 -7.125 C 3.992188 -4.90625 4.304688 -3.234375 4.953125 -2.109375 C 5.597656 -0.992188 6.539062 -0.4375 7.78125 -0.4375 Z M 7.78125 -0.4375 "/></g></g></g><g fill="#000000" fill-opacity="1"><g transform="translate(32.962094, 38.431617)"><g><path d="M 7.59375 -14.65625 C 9.476562 -14.65625 10.992188 -14.03125 12.140625 -12.78125 C 13.296875 -11.539062 13.875 -9.65625 13.875 -7.125 C 13.875 -4.59375 13.296875 -2.707031 12.140625 -1.46875 C 10.992188 -0.226562 9.476562 0.390625 7.59375 0.390625 C 5.707031 0.390625 4.1875 -0.226562 3.03125 -1.46875 C 1.875 -2.707031 1.296875 -4.59375 1.296875 -7.125 C 1.296875 -9.65625 1.875 -11.539062 3.03125 -12.78125 C 4.1875 -14.03125 5.707031 -14.65625 7.59375 -14.65625 Z M 7.59375 -14.09375 C 6.476562 -14.09375 5.597656 -13.523438 4.953125 -12.390625 C 4.304688 -11.253906 3.984375 -9.5 3.984375 -7.125 C 3.984375 -4.738281 4.304688 -2.984375 4.953125 -1.859375 C 5.597656 -0.734375 6.476562 -0.171875 7.59375 -0.171875 C 8.695312 -0.171875 9.570312 -0.734375 10.21875 -1.859375 C 10.863281 -2.984375 11.1875 -4.738281 11.1875 -7.125 C 11.1875 -9.5 10.863281 -11.253906 10.21875 -12.390625 C 9.570312 -13.523438 8.695312 -14.09375 7.59375 -14.09375 Z M 7.59375 -14.09375 "/></g></g></g><g fill="#000000" fill-opacity="1"><g transform="translate(48.142639, 38.431617)"><g><path d="M 9.640625 -14.65625 C 10.617188 -14.65625 11.5 -14.382812 12.28125 -13.84375 C 13.070312 -13.3125 13.6875 -12.53125 14.125 -11.5 C 14.570312 -10.46875 14.796875 -9.226562 14.796875 -7.78125 C 14.796875 -6.363281 14.566406 -5.035156 14.109375 -3.796875 C 13.660156 -2.554688 12.957031 -1.546875 12 -0.765625 C 11.050781 0.00390625 9.867188 0.390625 8.453125 0.390625 C 7.742188 0.390625 7.101562 0.253906 6.53125 -0.015625 C 5.957031 -0.296875 5.515625 -0.660156 5.203125 -1.109375 L 5.203125 2.4375 C 5.203125 3.195312 5.421875 3.71875 5.859375 4 C 6.304688 4.289062 6.976562 4.4375 7.875 4.4375 L 7.875 5.015625 L 7.234375 4.984375 C 5.515625 4.929688 4.394531 4.90625 3.875 4.90625 C 3.4375 4.90625 2.441406 4.941406 0.890625 5.015625 L 0.890625 4.4375 C 1.566406 4.4375 2.039062 4.3125 2.3125 4.0625 C 2.582031 3.8125 2.71875 3.363281 2.71875 2.71875 L 2.71875 -11.25 C 2.71875 -12.09375 2.554688 -12.707031 2.234375 -13.09375 C 1.921875 -13.488281 1.378906 -13.6875 0.609375 -13.6875 L 0.609375 -14.265625 C 1.179688 -14.210938 1.753906 -14.1875 2.328125 -14.1875 C 3.492188 -14.1875 4.453125 -14.316406 5.203125 -14.578125 L 5.203125 -11.640625 C 5.609375 -12.597656 6.195312 -13.335938 6.96875 -13.859375 C 7.75 -14.390625 8.640625 -14.65625 9.640625 -14.65625 Z M 8.140625 -0.25 C 10.785156 -0.25 12.109375 -2.628906 12.109375 -7.390625 C 12.109375 -11.679688 11.035156 -13.828125 8.890625 -13.828125 C 8.054688 -13.828125 7.304688 -13.523438 6.640625 -12.921875 C 5.984375 -12.316406 5.503906 -11.453125 5.203125 -10.328125 L 5.203125 -2.015625 C 5.460938 -1.484375 5.84375 -1.054688 6.34375 -0.734375 C 6.84375 -0.410156 7.441406 -0.25 8.140625 -0.25 Z M 8.140625 -0.25 "/></g></g></g><g fill="#000000" fill-opacity="1"><g transform="translate(64.237347, 38.431617)"><g><path d="M 12.828125 -3.328125 C 12.492188 -2.304688 11.867188 -1.429688 10.953125 -0.703125 C 10.035156 0.0234375 8.929688 0.390625 7.640625 0.390625 C 6.328125 0.390625 5.191406 0.09375 4.234375 -0.5 C 3.273438 -1.101562 2.539062 -1.945312 2.03125 -3.03125 C 1.53125 -4.113281 1.28125 -5.363281 1.28125 -6.78125 C 1.28125 -8.394531 1.535156 -9.789062 2.046875 -10.96875 C 2.566406 -12.15625 3.296875 -13.066406 4.234375 -13.703125 C 5.179688 -14.335938 6.28125 -14.65625 7.53125 -14.65625 C 9.195312 -14.65625 10.476562 -14.148438 11.375 -13.140625 C 12.269531 -12.140625 12.71875 -10.613281 12.71875 -8.5625 L 4.046875 -8.5625 C 3.992188 -8.039062 3.96875 -7.445312 3.96875 -6.78125 C 3.96875 -5.5625 4.164062 -4.5 4.5625 -3.59375 C 4.957031 -2.695312 5.484375 -2.003906 6.140625 -1.515625 C 6.796875 -1.023438 7.484375 -0.78125 8.203125 -0.78125 C 9.085938 -0.78125 9.867188 -0.988281 10.546875 -1.40625 C 11.234375 -1.832031 11.804688 -2.546875 12.265625 -3.546875 Z M 7.421875 -14.125 C 6.554688 -14.125 5.804688 -13.695312 5.171875 -12.84375 C 4.546875 -12 4.160156 -10.75 4.015625 -9.09375 L 10.0625 -9.09375 C 10.09375 -10.53125 9.878906 -11.726562 9.421875 -12.6875 C 8.972656 -13.644531 8.304688 -14.125 7.421875 -14.125 Z M 7.421875 -14.125 "/></g></g></g><g fill="#000000" fill-opacity="1"><g transform="translate(79.408535, 38.431617)"><g><path d="M 14.734375 -2.015625 C 15.035156 -1.578125 15.273438 -1.25 15.453125 -1.03125 C 15.640625 -0.820312 15.878906 -0.671875 16.171875 -0.578125 L 16.171875 0 C 14.703125 -0.0703125 13.734375 -0.109375 13.265625 -0.109375 C 12.660156 -0.109375 11.472656 -0.0703125 9.703125 0 L 9.703125 -0.578125 C 9.953125 -0.578125 10.148438 -0.625 10.296875 -0.71875 C 10.453125 -0.8125 10.53125 -0.941406 10.53125 -1.109375 C 10.53125 -1.203125 10.484375 -1.34375 10.390625 -1.53125 L 7.640625 -6.484375 C 7.460938 -6.796875 7.269531 -7.003906 7.0625 -7.109375 C 6.863281 -7.222656 6.601562 -7.300781 6.28125 -7.34375 L 6.28125 -2.578125 C 6.28125 -1.816406 6.398438 -1.289062 6.640625 -1 C 6.890625 -0.71875 7.328125 -0.578125 7.953125 -0.578125 L 7.953125 0 C 6.109375 -0.0703125 4.90625 -0.109375 4.34375 -0.109375 C 3.71875 -0.109375 2.445312 -0.0703125 0.53125 0 L 0.53125 -0.578125 C 1.175781 -0.578125 1.628906 -0.71875 1.890625 -1 C 2.160156 -1.289062 2.296875 -1.816406 2.296875 -2.578125 L 2.296875 -18.359375 C 2.296875 -19.210938 2.160156 -19.832031 1.890625 -20.21875 C 1.628906 -20.613281 1.175781 -20.8125 0.53125 -20.8125 L 0.53125 -21.390625 C 1.113281 -21.328125 1.6875 -21.296875 2.25 -21.296875 C 3.851562 -21.296875 5.195312 -21.425781 6.28125 -21.6875 L 6.28125 -7.875 C 6.65625 -7.90625 6.972656 -7.972656 7.234375 -8.078125 C 7.503906 -8.191406 7.742188 -8.363281 7.953125 -8.59375 L 10.0625 -10.640625 C 10.664062 -11.242188 10.96875 -11.804688 10.96875 -12.328125 C 10.96875 -12.753906 10.773438 -13.09375 10.390625 -13.34375 C 10.003906 -13.59375 9.488281 -13.734375 8.84375 -13.765625 L 8.84375 -14.328125 C 9.851562 -14.265625 10.929688 -14.234375 12.078125 -14.234375 C 13.609375 -14.234375 14.6875 -14.265625 15.3125 -14.328125 L 15.3125 -13.765625 C 14.226562 -13.523438 13.078125 -12.816406 11.859375 -11.640625 L 10.078125 -9.8125 Z M 14.734375 -2.015625 "/></g></g></g><g fill="#000000" fill-opacity="1"><g transform="translate(95.614051, 38.431617)"><g><path d="M 4.265625 -21.46875 C 5.046875 -21.46875 5.660156 -21.273438 6.109375 -20.890625 C 6.566406 -20.515625 6.796875 -20 6.796875 -19.34375 C 6.796875 -18.675781 6.566406 -18.148438 6.109375 -17.765625 C 5.660156 -17.390625 5.046875 -17.203125 4.265625 -17.203125 C 3.492188 -17.203125 2.878906 -17.390625 2.421875 -17.765625 C 1.972656 -18.148438 1.75 -18.675781 1.75 -19.34375 C 1.75 -20 1.972656 -20.515625 2.421875 -20.890625 C 2.878906 -21.273438 3.492188 -21.46875 4.265625 -21.46875 Z M 6.421875 -2.578125 C 6.421875 -1.816406 6.554688 -1.289062 6.828125 -1 C 7.097656 -0.71875 7.554688 -0.578125 8.203125 -0.578125 L 8.203125 0 C 6.359375 -0.0703125 5.128906 -0.109375 4.515625 -0.109375 C 3.941406 -0.109375 2.660156 -0.0703125 0.671875 0 L 0.671875 -0.578125 C 1.328125 -0.578125 1.785156 -0.71875 2.046875 -1 C 2.304688 -1.289062 2.4375 -1.816406 2.4375 -2.578125 L 2.4375 -11.296875 C 2.4375 -12.148438 2.304688 -12.769531 2.046875 -13.15625 C 1.785156 -13.539062 1.328125 -13.734375 0.671875 -13.734375 L 0.671875 -14.328125 C 1.253906 -14.265625 1.820312 -14.234375 2.375 -14.234375 C 4.019531 -14.234375 5.367188 -14.363281 6.421875 -14.625 Z M 6.421875 -2.578125 "/></g></g></g><g fill="#000000" fill-opacity="1"><g transform="translate(104.340093, 38.431617)"><g><path d="M 7.875 -14.703125 C 8.550781 -14.703125 9.191406 -14.628906 9.796875 -14.484375 C 10.410156 -14.335938 10.921875 -14.132812 11.328125 -13.875 C 11.804688 -13.582031 12.179688 -13.207031 12.453125 -12.75 C 12.722656 -12.300781 12.859375 -11.8125 12.859375 -11.28125 C 12.859375 -10.632812 12.65625 -10.101562 12.25 -9.6875 C 11.84375 -9.269531 11.316406 -9.0625 10.671875 -9.0625 C 10.023438 -9.0625 9.503906 -9.242188 9.109375 -9.609375 C 8.722656 -9.984375 8.53125 -10.484375 8.53125 -11.109375 C 8.53125 -11.660156 8.703125 -12.140625 9.046875 -12.546875 C 9.398438 -12.953125 9.835938 -13.226562 10.359375 -13.375 C 10.210938 -13.582031 9.984375 -13.742188 9.671875 -13.859375 C 9.367188 -13.984375 9.046875 -14.046875 8.703125 -14.046875 C 7.585938 -14.046875 6.722656 -13.441406 6.109375 -12.234375 C 5.492188 -11.023438 5.1875 -9.441406 5.1875 -7.484375 C 5.1875 -5.503906 5.535156 -4.078125 6.234375 -3.203125 C 6.929688 -2.335938 7.804688 -1.90625 8.859375 -1.90625 C 9.492188 -1.90625 10.128906 -2.070312 10.765625 -2.40625 C 11.398438 -2.738281 11.976562 -3.320312 12.5 -4.15625 L 12.96875 -3.984375 C 12.59375 -2.785156 11.941406 -1.753906 11.015625 -0.890625 C 10.097656 -0.0351562 8.910156 0.390625 7.453125 0.390625 C 5.546875 0.390625 3.992188 -0.234375 2.796875 -1.484375 C 1.597656 -2.742188 1 -4.613281 1 -7.09375 C 1 -8.71875 1.289062 -10.101562 1.875 -11.25 C 2.46875 -12.394531 3.28125 -13.253906 4.3125 -13.828125 C 5.351562 -14.410156 6.539062 -14.703125 7.875 -14.703125 Z M 7.875 -14.703125 "/></g></g></g><g fill="#000000" fill-opacity="1"><g transform="translate(118.080149, 38.431617)"><g><path d="M 14.734375 -2.015625 C 15.035156 -1.578125 15.273438 -1.25 15.453125 -1.03125 C 15.640625 -0.820312 15.878906 -0.671875 16.171875 -0.578125 L 16.171875 0 C 14.703125 -0.0703125 13.734375 -0.109375 13.265625 -0.109375 C 12.660156 -0.109375 11.472656 -0.0703125 9.703125 0 L 9.703125 -0.578125 C 9.953125 -0.578125 10.148438 -0.625 10.296875 -0.71875 C 10.453125 -0.8125 10.53125 -0.941406 10.53125 -1.109375 C 10.53125 -1.203125 10.484375 -1.34375 10.390625 -1.53125 L 7.640625 -6.484375 C 7.460938 -6.796875 7.269531 -7.003906 7.0625 -7.109375 C 6.863281 -7.222656 6.601562 -7.300781 6.28125 -7.34375 L 6.28125 -2.578125 C 6.28125 -1.816406 6.398438 -1.289062 6.640625 -1 C 6.890625 -0.71875 7.328125 -0.578125 7.953125 -0.578125 L 7.953125 0 C 6.109375 -0.0703125 4.90625 -0.109375 4.34375 -0.109375 C 3.71875 -0.109375 2.445312 -0.0703125 0.53125 0 L 0.53125 -0.578125 C 1.175781 -0.578125 1.628906 -0.71875 1.890625 -1 C 2.160156 -1.289062 2.296875 -1.816406 2.296875 -2.578125 L 2.296875 -18.359375 C 2.296875 -19.210938 2.160156 -19.832031 1.890625 -20.21875 C 1.628906 -20.613281 1.175781 -20.8125 0.53125 -20.8125 L 0.53125 -21.390625 C 1.113281 -21.328125 1.6875 -21.296875 2.25 -21.296875 C 3.851562 -21.296875 5.195312 -21.425781 6.28125 -21.6875 L 6.28125 -7.875 C 6.65625 -7.90625 6.972656 -7.972656 7.234375 -8.078125 C 7.503906 -8.191406 7.742188 -8.363281 7.953125 -8.59375 L 10.0625 -10.640625 C 10.664062 -11.242188 10.96875 -11.804688 10.96875 -12.328125 C 10.96875 -12.753906 10.773438 -13.09375 10.390625 -13.34375 C 10.003906 -13.59375 9.488281 -13.734375 8.84375 -13.765625 L 8.84375 -14.328125 C 9.851562 -14.265625 10.929688 -14.234375 12.078125 -14.234375 C 13.609375 -14.234375 14.6875 -14.265625 15.3125 -14.328125 L 15.3125 -13.765625 C 14.226562 -13.523438 13.078125 -12.816406 11.859375 -11.640625 L 10.078125 -9.8125 Z M 14.734375 -2.015625 "/></g></g></g><g fill="#000000" fill-opacity="1"><g transform="translate(134.285665, 38.431617)"><g><path d="M 6.15625 -14.703125 C 6.851562 -14.703125 7.492188 -14.613281 8.078125 -14.4375 C 8.671875 -14.269531 9.128906 -14.070312 9.453125 -13.84375 C 9.628906 -13.71875 9.796875 -13.65625 9.953125 -13.65625 C 10.109375 -13.65625 10.25 -13.742188 10.375 -13.921875 C 10.5 -14.097656 10.578125 -14.351562 10.609375 -14.6875 L 11.1875 -14.6875 C 11.113281 -13.738281 11.078125 -12.113281 11.078125 -9.8125 L 10.5 -9.8125 C 10.332031 -11.03125 9.96875 -12.046875 9.40625 -12.859375 C 8.84375 -13.679688 8.023438 -14.09375 6.953125 -14.09375 C 6.398438 -14.09375 5.941406 -13.9375 5.578125 -13.625 C 5.222656 -13.3125 5.046875 -12.878906 5.046875 -12.328125 C 5.046875 -11.703125 5.253906 -11.160156 5.671875 -10.703125 C 6.097656 -10.253906 6.765625 -9.707031 7.671875 -9.0625 L 8.484375 -8.484375 C 9.609375 -7.628906 10.4375 -6.867188 10.96875 -6.203125 C 11.507812 -5.535156 11.78125 -4.707031 11.78125 -3.71875 C 11.78125 -2.90625 11.539062 -2.179688 11.0625 -1.546875 C 10.59375 -0.921875 9.960938 -0.441406 9.171875 -0.109375 C 8.378906 0.222656 7.5 0.390625 6.53125 0.390625 C 5.519531 0.390625 4.65625 0.195312 3.9375 -0.1875 C 3.34375 -0.488281 2.914062 -0.6875 2.65625 -0.78125 C 2.46875 -0.832031 2.304688 -0.769531 2.171875 -0.59375 C 2.035156 -0.414062 1.929688 -0.15625 1.859375 0.1875 L 1.28125 0.1875 C 1.351562 -0.863281 1.390625 -2.707031 1.390625 -5.34375 L 1.96875 -5.34375 C 2.332031 -1.945312 3.578125 -0.25 5.703125 -0.25 C 6.242188 -0.25 6.703125 -0.410156 7.078125 -0.734375 C 7.453125 -1.054688 7.640625 -1.550781 7.640625 -2.21875 C 7.640625 -2.726562 7.523438 -3.1875 7.296875 -3.59375 C 7.066406 -4 6.773438 -4.359375 6.421875 -4.671875 C 6.078125 -4.992188 5.550781 -5.429688 4.84375 -5.984375 C 4.007812 -6.648438 3.375 -7.1875 2.9375 -7.59375 C 2.507812 -8 2.144531 -8.476562 1.84375 -9.03125 C 1.539062 -9.582031 1.390625 -10.203125 1.390625 -10.890625 C 1.390625 -12.066406 1.847656 -12.992188 2.765625 -13.671875 C 3.691406 -14.359375 4.820312 -14.703125 6.15625 -14.703125 Z M 6.15625 -14.703125 "/></g></g></g></svg>